<?xml version="1.0" standalone="no"?>
<!DOCTYPE svg PUBLIC "-//W3C//DTD SVG 20010904//EN"
 "http://www.w3.org/TR/2001/REC-SVG-20010904/DTD/svg10.dtd">
<svg version="1.0" xmlns="http://www.w3.org/2000/svg"
 width="1412.000000pt" height="1415.000000pt" viewBox="0 0 1412.000000 1415.000000"
 preserveAspectRatio="xMidYMid meet">
<metadata>
Created by potrace 1.16, written by Peter Selinger 2001-2019
</metadata>
<g transform="translate(0.000000,1415.000000) scale(0.100000,-0.100000)"
fill="#000000" stroke="none">
<path d="M0 7075 l0 -7075 7060 0 7060 0 0 7075 0 7075 -7060 0 -7060 0 0
-7075z m14030 0 l0 -6985 -6970 0 -6970 0 0 6985 0 6985 6970 0 6970 0 0
-6985z"/>
<path d="M840 12545 l0 -1005 4360 0 4360 0 0 1005 0 1005 -4360 0 -4360 0 0
-1005z m8650 0 l0 -935 -4290 0 -4290 0 0 935 0 935 4290 0 4290 0 0 -935z"/>
<path d="M12152 13329 c-480 -73 -732 -585 -496 -1007 72 -129 225 -253 371
-301 186 -62 370 -49 553 41 120 58 240 178 299 298 48 99 71 194 71 300 0
106 -23 201 -71 300 -54 110 -178 237 -284 292 -132 69 -303 98 -443 77z m263
-106 c202 -51 382 -232 430 -434 77 -330 -158 -658 -509 -710 -127 -19 -275
12 -394 83 -112 67 -222 205 -261 328 -106 336 129 694 493 750 63 10 162 3
241 -17z"/>
<path d="M3985 10453 c-296 -63 -609 -314 -826 -663 -156 -252 -340 -718 -503
-1275 -79 -270 -106 -390 -106 -465 1 -110 53 -194 155 -248 l50 -27 1064 -3
c951 -2 1071 -1 1120 14 70 20 141 64 176 110 57 75 57 72 52 686 -3 520 -5
574 -26 703 -100 637 -273 949 -614 1110 -115 55 -211 75 -351 74 -67 0 -152
-7 -191 -16z m428 -124 c116 -39 177 -79 282 -184 74 -73 111 -119 137 -170
71 -137 129 -312 163 -494 44 -233 48 -288 52 -900 l5 -593 -34 -35 c-65 -68
22 -63 -1177 -63 l-1091 0 -41 37 -41 37 5 126 c4 117 8 138 66 335 193 652
374 1109 541 1358 80 120 263 317 369 398 77 58 222 132 301 153 38 10 109 15
228 15 150 1 181 -2 235 -20z"/>
<path d="M9740 10449 c-194 -50 -385 -185 -498 -351 -116 -170 -205 -444 -263
-813 -21 -129 -23 -183 -26 -703 -5 -614 -5 -611 52 -686 35 -46 106 -90 176
-110 49 -15 169 -16 1120 -14 l1064 3 50 27 c102 54 154 138 155 248 0 75 -27
195 -106 465 -163 557 -347 1023 -503 1275 -220 353 -532 602 -833 664 -109
23 -292 20 -388 -5z m425 -114 c83 -22 227 -94 306 -154 106 -81 289 -278 369
-398 167 -249 348 -706 541 -1358 58 -197 62 -218 66 -335 l5 -126 -41 -37
-41 -37 -1091 0 c-1199 0 -1112 -5 -1177 63 l-34 35 5 593 c4 612 8 667 52
900 34 182 92 357 163 494 45 87 209 255 291 299 123 65 170 76 356 76 122 0
188 -4 230 -15z"/>
<path d="M2747 7456 c-98 -36 -166 -111 -188 -211 -20 -89 -6 -377 25 -507
114 -487 415 -783 904 -889 124 -27 472 -38 620 -19 587 73 953 425 1047 1005
20 122 20 365 0 433 -21 69 -69 129 -135 166 l-55 31 -1090 2 c-899 2 -1097 0
-1128 -11z m2264 -145 l39 -39 0 -198 c0 -233 -14 -340 -64 -480 -57 -157
-107 -235 -231 -359 -115 -115 -170 -154 -305 -212 -144 -62 -230 -75 -536
-80 -317 -6 -436 7 -591 62 -154 55 -234 106 -353 225 -115 115 -165 190 -223
336 -59 148 -68 203 -74 467 l-5 237 40 40 40 40 1112 0 1112 0 39 -39z"/>
<path d="M9149 7456 c-95 -34 -157 -98 -184 -189 -20 -67 -20 -311 0 -432 44
-271 145 -489 305 -658 182 -193 429 -308 742 -347 148 -19 496 -8 620 19 489
106 790 402 904 889 34 145 46 437 20 524 -21 75 -68 134 -136 172 l-55 31
-1090 2 c-874 2 -1097 0 -1126 -11z m2263 -146 l40 -40 -5 -237 c-6 -264 -15
-319 -74 -467 -58 -146 -108 -221 -223 -336 -119 -119 -199 -170 -353 -225
-155 -55 -274 -68 -591 -62 -306 5 -392 18 -536 80 -135 58 -190 97 -305 212
-124 124 -174 202 -231 359 -50 140 -64 247 -64 480 l0 198 39 39 39 39 1112
0 1112 0 40 -40z"/>
<path d="M3450 5649 c-563 -68 -1064 -312 -1466 -713 -373 -374 -601 -813
-696 -1343 -20 -114 -23 -159 -23 -413 0 -254 3 -299 23 -413 95 -529 324
-970 696 -1343 374 -373 813 -601 1343 -696 114 -20 159 -23 413 -23 254 0
299 3 413 23 530 95 969 323 1343 696 372 373 601 814 696 1343 20 114 23 159
23 413 0 254 -3 299 -23 413 -95 530 -323 969 -696 1343 -372 371 -815 601
-1337 694 -102 19 -170 23 -379 26 -140 1 -289 -2 -330 -7z m555 -80 c410 -42
827 -206 1175 -465 135 -100 384 -349 484 -484 252 -339 406 -719 461 -1135
21 -158 21 -452 0 -610 -55 -416 -209 -796 -461 -1135 -100 -135 -349 -384
-484 -484 -339 -252 -719 -406 -1135 -461 -158 -21 -452 -21 -610 0 -416 55
-796 209 -1135 461 -135 100 -384 349 -484 484 -252 339 -406 719 -461 1135
-21 158 -21 452 0 610 55 416 209 796 461 1135 100 135 349 384 484 484 499
370 1080 529 1705 465z"/>
<path d="M3389 4492 l-344 -597 -597 -344 c-329 -189 -598 -347 -598 -351 0
-4 269 -162 598 -351 l597 -344 344 -597 c189 -329 347 -598 351 -598 4 0 162
269 351 598 l344 597 597 344 c329 189 598 347 598 351 0 4 -269 162 -598 351
l-597 344 -344 597 c-189 329 -347 598 -351 598 -4 0 -162 -269 -351 -598z
m646 -27 c160 -278 292 -510 293 -515 2 -7 -207 -10 -588 -10 -381 0 -590 3
-588 10 7 20 583 1020 588 1020 3 0 136 -228 295 -505z m395 -1265 l0 -690
-690 0 -690 0 0 690 0 690 690 0 690 0 0 -690z m-1430 -1 c0 -381 -3 -589 -10
-587 -20 7 -1020 583 -1020 588 0 6 1011 589 1023 589 4 1 7 -265 7 -590z
m2005 296 c277 -159 505 -292 505 -295 0 -5 -1000 -581 -1020 -588 -7 -2 -10
207 -10 588 0 381 3 590 10 588 5 -1 237 -133 515 -293z m-677 -1045 c-7 -20
-583 -1020 -588 -1020 -5 0 -581 1000 -588 1020 -2 7 207 10 588 10 381 0 590
-3 588 -10z"/>
<path d="M9850 5649 c-563 -68 -1064 -312 -1466 -713 -373 -374 -601 -813
-696 -1343 -20 -114 -23 -159 -23 -413 0 -254 3 -299 23 -413 95 -529 324
-970 696 -1343 374 -373 813 -601 1343 -696 114 -20 159 -23 413 -23 254 0
299 3 413 23 530 95 969 323 1343 696 372 373 601 814 696 1343 20 114 23 159
23 413 0 254 -3 299 -23 413 -95 530 -323 969 -696 1343 -372 371 -815 601
-1337 694 -102 19 -170 23 -379 26 -140 1 -289 -2 -330 -7z m555 -80 c410 -42
827 -206 1175 -465 135 -100 384 -349 484 -484 252 -339 406 -719 461 -1135
33 -251 17 -584 -40 -839 -72 -318 -218 -633 -421 -906 -100 -135 -349 -384
-484 -484 -339 -252 -719 -406 -1135 -461 -158 -21 -452 -21 -610 0 -416 55
-796 209 -1135 461 -135 100 -384 349 -484 484 -252 339 -406 719 -461 1135
-21 158 -21 452 0 610 55 416 209 796 461 1135 100 135 349 384 484 484 499
370 1080 529 1705 465z"/>
<path d="M9970 5074 c-139 -37 -287 -133 -366 -237 -100 -132 -144 -263 -144
-427 0 -121 16 -193 64 -295 69 -146 175 -252 321 -321 102 -48 174 -64 295
-64 121 0 193 16 295 64 146 69 252 175 321 321 48 102 64 174 64 295 0 164
-44 295 -144 427 -80 106 -229 201 -371 238 -76 19 -260 19 -335 -1z m324 -50
c190 -46 364 -201 436 -386 127 -328 -41 -698 -373 -823 -344 -129 -736 79
-832 441 -20 77 -20 231 0 308 90 338 431 542 769 460z"/>
<path d="M8610 3844 c-139 -37 -287 -133 -366 -237 -100 -132 -144 -263 -144
-427 0 -164 44 -295 144 -427 80 -106 229 -201 371 -238 78 -20 252 -20 330 0
142 37 291 132 371 238 100 132 144 263 144 427 0 164 -44 295 -144 427 -80
106 -229 201 -371 238 -76 19 -260 19 -335 -1z m324 -50 c190 -46 364 -201
436 -386 127 -328 -41 -698 -373 -823 -344 -129 -736 79 -832 441 -20 77 -20
231 0 308 90 338 431 542 769 460z"/>
<path d="M11400 3844 c-139 -37 -287 -133 -366 -237 -100 -132 -144 -263 -144
-427 0 -164 44 -295 144 -427 80 -106 229 -201 371 -238 78 -20 252 -20 330 0
142 37 291 132 371 238 100 132 144 263 144 427 0 164 -44 295 -144 427 -80
106 -229 201 -371 238 -76 19 -260 19 -335 -1z m324 -50 c190 -46 364 -201
436 -386 127 -328 -41 -698 -373 -823 -344 -129 -736 79 -832 441 -20 77 -20
231 0 308 90 338 431 542 769 460z"/>
<path d="M9970 2484 c-139 -37 -287 -133 -366 -237 -100 -132 -144 -263 -144
-427 0 -164 44 -295 144 -427 80 -106 229 -201 371 -238 78 -20 252 -20 330 0
142 37 291 132 371 238 100 132 144 263 144 427 0 164 -44 295 -144 427 -80
106 -229 201 -371 238 -76 19 -260 19 -335 -1z m324 -50 c190 -46 364 -201
436 -386 127 -328 -41 -698 -373 -823 -344 -129 -736 79 -832 441 -20 77 -20
231 0 308 90 338 431 542 769 460z"/>
</g>
</svg>
